<?xml version="1.0" encoding="utf-8"?>
<!-- Generator: Adobe Illustrator 21.0.0, SVG Export Plug-In . SVG Version: 6.00 Build 0)  -->
<svg version="1.1" id="Layer_1" xmlns="http://www.w3.org/2000/svg" xmlns:xlink="http://www.w3.org/1999/xlink" x="0px" y="0px"
	 viewBox="0 0 1024 512" style="enable-background:new 0 0 1024 512;" xml:space="preserve">
<style type="text/css">
	.st0{display:none;fill:#333333;}
	.st1{fill:#333333;}
</style>
<polygon class="st0" points="327.8,179.7 327.8,323.8 197.7,323.8 197.7,179.7 234.9,179.7 234.9,286.6 290.6,286.6 290.6,179.7 "/>
<polygon class="st1" points="400.6,290.8 400.6,328 333.7,328 333.7,327.8 298.7,327.8 298.7,184 335.7,184 335.7,290.8 "/>
<polygon class="st1" points="483.4,184 483.4,219.9 449.4,219.9 449.4,328 412.4,328 412.4,219.9 378.4,219.9 378.4,184 "/>
<path class="st1" d="M624.9,194.7l0,26.5v13.3c0,6-4.9,10.9-10.9,10.9l8.2,0c1.5,0,2.7,1.2,2.7,2.7l0,34.4l0,42.8
	c0,1.5-1.2,2.7-2.7,2.7l-31.7,0c-1.5,0-2.7-1.2-2.7-2.7l0-42.8v0c0-2.3-2.6-3.5-4.4-2.1c-1.8,1.3-4.1,2.1-6.5,2.1l-34,0
	c-6,0-10.9-4.9-10.9-10.9l0-15.4c0-6,4.9-10.9,10.9-10.9l34,0c6,0,10.9,4.9,10.9,10.9l0-8.1c0-1.5,1.2-2.7,2.7-2.7h8.2
	c-6,0-10.9-4.9-10.9-10.9l0-10.6c0-1.5-1.2-2.7-2.7-2.7l-50.3,0c-1.5,0-2.7,1.2-2.7,2.7v10.6c0,6-4.9,10.9-10.9,10.9l-15.4,0
	c-6,0-10.9,4.9-10.9,10.9l0,15.4c0,6,4.9,10.9,10.9,10.9h15.4c6,0,10.9,4.9,10.9,10.9l0,23.7c0,6-4.9,10.9-10.9,10.9l-15.4,0
	c-6,0-10.9-4.9-10.9-10.9l0-96l0-26.3c0-6,4.9-10.9,10.9-10.9h15.5l76.9,0h16l0.6,0C620.3,184.3,624.9,188.9,624.9,194.7z"/>
<path class="st1" d="M614.1,256h-15.8c0.1,0,0.3,0,0.4,0L614.1,256z"/>
<path class="st1" d="M505.7,250.6c-6,0-10.9,4.9-10.9,10.9v-10.9L505.7,250.6z"/>
<path class="st1" d="M624.9,250.6v10.7c-0.1-5.7-4.6-10.4-10.3-10.7H624.9z"/>
<polygon class="st1" points="766.9,327.8 729.7,327.9 729.4,221.3 673.6,221.4 674,328.1 636.8,328.2 636.5,221.5 636.3,184.4 
	673.5,184.2 729.3,184.1 729.3,183.9 766.5,183.8 "/>
<polygon class="st1" points="673.5,255.8 673.5,256 636.3,256.2 636.3,256 "/>
<polygon class="st1" points="636.5,274.6 636.4,274.6 636.3,237.4 636.3,237.4 "/>
<rect x="624.9" y="237.4" class="st1" width="0" height="37.2"/>
<g>
	
		<rect x="784.1" y="184.1" transform="matrix(1 -2.998401e-03 2.998401e-03 1 -0.6038 2.547)" class="st1" width="130.1" height="37.2"/>
	<polygon class="st1" points="914.4,327.7 784.3,328.1 784.2,291 877.9,290.7 877.9,274.4 784.3,274.7 784.2,237.5 914.3,237.1 
		914.3,250.4 914.4,265 914.4,314.6 914.4,314.6 	"/>
	<polygon class="st1" points="914.4,274.3 914.4,274.3 914.4,265 	"/>
	<polygon class="st1" points="914.4,250.4 914.4,265 914.3,250.4 	"/>
</g>
<g>
	<path class="st1" d="M292.1,263.5c-5,22.7-18.5,43.6-39.4,57.4c-41.9,27.6-98.9,16.3-127.1-25.2c-26.1-38.4-19.3-89.3,13.5-119.7
		c-14.9,27.2-14.9,61.5,2.8,89.4c25.9,40.9,80.6,53.3,121.5,27.5C275.6,285.2,285.3,275.1,292.1,263.5z"/>
	<path class="st1" d="M200.3,217.4c-3.5,7.1-11.9,12.1-21.7,12.1s-18.2-5-21.7-12.1c3.5-7.1,11.9-12.1,21.7-12.1
		S196.8,210.3,200.3,217.4z"/>
	<path class="st1" d="M264.3,217.4c-3.5,7.1-11.9,12.1-21.7,12.1s-18.2-5-21.7-12.1c3.5-7.1,11.9-12.1,21.7-12.1
		S260.7,210.3,264.3,217.4z"/>
</g>
</svg>
